<?xml version="1.0" standalone="no"?>
<!DOCTYPE svg PUBLIC "-//W3C//DTD SVG 20010904//EN"
 "http://www.w3.org/TR/2001/REC-SVG-20010904/DTD/svg10.dtd">
<svg version="1.0" xmlns="http://www.w3.org/2000/svg"
 width="501.000000pt" height="501.000000pt" viewBox="0 0 501.000000 501.000000"
 preserveAspectRatio="xMidYMid meet">
<metadata>
Created by potrace 1.11, written by Peter Selinger 2001-2013
</metadata>
<g transform="translate(0.000000,501.000000) scale(0.100000,-0.100000)"
fill="#000000" stroke="none">
<path d="M410 4998 c0 -4 -92 -8 -205 -8 l-205 0 0 -208 0 -207 205 -205 c113
-113 205 -208 205 -212 0 -5 -92 -8 -205 -8 l-205 0 0 -208 0 -207 205 -205
c113 -113 205 -208 205 -212 0 -5 -92 -8 -205 -8 l-205 0 0 -208 0 -207 205
-205 c113 -113 205 -208 205 -212 0 -5 -92 -8 -205 -8 l-205 0 0 -208 0 -207
205 -205 c113 -113 205 -208 205 -212 0 -5 -92 -8 -205 -8 l-205 0 0 -208 0
-207 205 -205 c113 -113 205 -208 205 -212 0 -5 -92 -8 -205 -8 l-205 0 0
-208 0 -207 188 -188 c131 -131 194 -187 210 -187 22 0 22 0 22 185 l0 185
205 0 c113 0 205 3 205 8 0 4 -92 99 -205 212 l-205 205 0 207 0 208 205 0
c113 0 205 3 205 8 0 4 -92 99 -205 212 l-205 205 0 207 0 208 205 0 c113 0
205 3 205 8 0 4 -92 99 -205 212 l-205 205 0 207 0 208 205 0 c113 0 205 3
205 8 0 4 -92 99 -205 212 l-205 205 0 207 0 208 205 0 c113 0 205 3 205 8 0
4 -92 99 -205 212 l-205 205 0 207 0 208 205 0 c113 0 205 3 205 7 0 4 -94
102 -210 218 -116 116 -210 207 -210 203z"/>
<path d="M1250 4998 c0 -4 -92 -8 -205 -8 l-205 0 0 -208 0 -207 205 -205
c113 -113 205 -208 205 -212 0 -5 -92 -8 -205 -8 l-205 0 0 -208 0 -207 205
-205 c113 -113 205 -208 205 -212 0 -5 -92 -8 -205 -8 l-205 0 0 -208 0 -207
205 -205 c113 -113 205 -208 205 -212 0 -5 -92 -8 -205 -8 l-205 0 0 -208 0
-207 205 -205 c113 -113 205 -208 205 -212 0 -5 -92 -8 -205 -8 l-205 0 0
-208 0 -207 205 -205 c113 -113 205 -208 205 -212 0 -5 -92 -8 -205 -8 l-205
0 0 -208 0 -207 188 -188 c131 -131 194 -187 210 -187 22 0 22 0 22 185 l0
185 205 0 c113 0 205 3 205 8 0 4 -92 99 -205 212 l-205 205 0 207 0 208 205
0 c113 0 205 3 205 8 0 4 -92 99 -205 212 l-205 205 0 207 0 208 205 0 c113 0
205 3 205 8 0 4 -92 99 -205 212 l-205 205 0 207 0 208 205 0 c113 0 205 3
205 8 0 4 -92 99 -205 212 l-205 205 0 207 0 208 205 0 c113 0 205 3 205 8 0
4 -92 99 -205 212 l-205 205 0 207 0 208 212 0 213 0 207 -207 208 -208 0 208
0 207 212 0 213 0 207 -207 208 -208 0 208 0 207 212 0 213 0 207 -207 208
-208 0 208 0 207 212 0 213 0 207 -207 208 -208 0 208 0 207 195 0 c178 0 195
2 195 17 0 10 -90 108 -200 218 -110 111 -200 197 -200 193 0 -4 -92 -8 -205
-8 l-205 0 0 -207 0 -208 -208 208 -207 207 -213 0 -212 0 0 -207 0 -208 -208
208 -207 207 -213 0 -212 0 0 -207 0 -208 -215 215 c-118 119 -215 212 -215
208 0 -4 -92 -8 -205 -8 l-205 0 0 -207 0 -208 -215 215 c-118 119 -215 212
-215 208z"/>
<path d="M1680 3942 l0 -207 205 -205 c113 -113 205 -208 205 -212 0 -5 -92
-8 -205 -8 l-205 0 0 -208 0 -207 205 -205 c113 -113 205 -208 205 -212 0 -5
-92 -8 -205 -8 l-205 0 0 -208 0 -207 205 -205 c113 -113 205 -208 205 -212 0
-5 -92 -8 -205 -8 l-205 0 0 -208 0 -207 205 -205 c113 -113 205 -208 205
-212 0 -5 -92 -8 -205 -8 l-205 0 0 -208 0 -207 188 -188 c131 -131 194 -187
210 -187 22 0 22 0 22 185 l0 185 205 0 c113 0 205 3 205 8 0 4 -92 99 -205
212 l-205 205 0 207 0 208 205 0 c113 0 205 3 205 8 0 4 -92 99 -205 212
l-205 205 0 207 0 208 205 0 c113 0 205 3 205 8 0 4 -92 99 -205 212 l-205
205 0 207 0 208 205 0 c113 0 205 3 205 8 0 4 -92 99 -205 212 l-205 205 0
207 0 208 212 0 213 0 207 -207 208 -208 0 208 0 207 212 0 213 0 207 -207
208 -208 0 208 0 207 205 0 c113 0 205 3 205 8 0 4 -91 98 -203 210 l-202 202
-213 0 -212 0 0 -207 0 -208 -208 208 -207 207 -213 0 -212 0 0 -207 0 -208
-208 208 -207 207 -213 0 -212 0 0 -208z"/>
<path d="M4200 3942 l0 -207 210 -210 210 -210 0 208 0 207 195 0 c179 0 195
1 195 17 0 10 -87 104 -192 210 l-193 193 -212 0 -213 0 0 -208z"/>
<path d="M2520 3102 l0 -207 205 -205 c113 -113 205 -208 205 -212 0 -5 -92
-8 -205 -8 l-205 0 0 -208 0 -207 205 -205 c113 -113 205 -208 205 -212 0 -5
-92 -8 -205 -8 l-205 0 0 -208 0 -207 205 -205 c113 -113 205 -208 205 -212 0
-5 -92 -8 -205 -8 l-205 0 0 -208 0 -207 188 -188 c131 -131 194 -187 210
-187 22 0 22 0 22 185 l0 185 205 0 c113 0 205 3 205 8 0 4 -92 99 -205 212
l-205 205 0 207 0 208 205 0 c113 0 205 3 205 8 0 4 -92 99 -205 212 l-205
205 0 207 0 208 205 0 c113 0 205 3 205 8 0 4 -92 99 -205 212 l-205 205 0
207 0 208 205 0 c113 0 205 3 205 8 0 4 -91 98 -203 210 l-202 202 -213 0
-212 0 0 -208z"/>
<path d="M3360 3102 l0 -207 205 -205 c113 -113 205 -208 205 -212 0 -5 -92
-8 -205 -8 l-205 0 0 -208 0 -207 205 -205 c113 -113 205 -208 205 -212 0 -5
-92 -8 -205 -8 l-205 0 0 -208 0 -207 205 -205 c113 -113 205 -208 205 -212 0
-5 -92 -8 -205 -8 l-205 0 0 -208 0 -207 188 -188 c131 -131 194 -187 210
-187 22 0 22 0 22 185 l0 185 205 0 c113 0 205 3 205 8 0 4 -92 99 -205 212
l-205 205 0 207 0 208 205 0 c113 0 205 3 205 8 0 4 -92 99 -205 212 l-205
205 0 207 0 208 205 0 c113 0 205 3 205 8 0 4 -92 99 -205 212 l-205 205 0
207 0 208 205 0 c113 0 205 3 205 8 0 4 -91 98 -203 210 l-202 202 -213 0
-212 0 0 -208z"/>
<path d="M4200 3102 l0 -207 205 -205 c113 -113 205 -208 205 -212 0 -5 -92
-8 -205 -8 l-205 0 0 -208 0 -207 205 -205 c113 -113 205 -208 205 -212 0 -5
-92 -8 -205 -8 l-205 0 0 -208 0 -207 205 -205 c113 -113 205 -208 205 -212 0
-5 -92 -8 -205 -8 l-205 0 0 -208 0 -207 188 -188 c131 -131 194 -187 210
-187 22 0 22 0 22 185 l0 185 195 0 c179 0 195 1 195 18 0 9 -88 105 -195 212
l-195 195 0 207 0 208 195 0 c179 0 195 1 195 18 0 9 -88 105 -195 212 l-195
195 0 207 0 208 195 0 c179 0 195 1 195 18 0 9 -88 105 -195 212 l-195 195 0
207 0 208 195 0 c179 0 195 1 195 17 0 10 -87 104 -192 210 l-193 193 -212 0
-213 0 0 -208z"/>
</g>
</svg>
